<?xml version="1.0" encoding="UTF-8" standalone="no"?>
<!-- Created with Inkscape (http://www.inkscape.org/) -->

<svg
   xmlns:dc="http://purl.org/dc/elements/1.1/"
   xmlns:cc="http://creativecommons.org/ns#"
   xmlns:rdf="http://www.w3.org/1999/02/22-rdf-syntax-ns#"
   xmlns:svg="http://www.w3.org/2000/svg"
   xmlns="http://www.w3.org/2000/svg"
   xmlns:sodipodi="http://sodipodi.sourceforge.net/DTD/sodipodi-0.dtd"
   xmlns:inkscape="http://www.inkscape.org/namespaces/inkscape"
   width="512"
   height="512"
   id="svg2"
   version="1.1"
   inkscape:version="0.48.4 r9939"
   sodipodi:docname="logo.svg"
   inkscape:export-filename="/home/derrick/code/911/res/drawable-xxhdpi/logo.png"
   inkscape:export-xdpi="25.3125"
   inkscape:export-ydpi="25.3125">
  <defs
     id="defs4" />
  <sodipodi:namedview
     id="base"
     pagecolor="#ffffff"
     bordercolor="#666666"
     borderopacity="1.0"
     inkscape:pageopacity="0.0"
     inkscape:pageshadow="2"
     inkscape:zoom="2.0429688"
     inkscape:cx="365.2207"
     inkscape:cy="254.05565"
     inkscape:document-units="px"
     inkscape:current-layer="layer2"
     showgrid="true"
     inkscape:window-width="2495"
     inkscape:window-height="1416"
     inkscape:window-x="2625"
     inkscape:window-y="24"
     inkscape:window-maximized="1"
     fit-margin-top="0"
     fit-margin-left="0"
     fit-margin-right="0"
     fit-margin-bottom="0">
    <inkscape:grid
       type="xygrid"
       id="grid3023"
       empspacing="5"
       visible="true"
       enabled="true"
       snapvisiblegridlinesonly="true"
       originx="-97.729686px"
       originy="-289.48715px" />
  </sodipodi:namedview>
  <metadata
     id="metadata7">
    <rdf:RDF>
      <cc:Work
         rdf:about="">
        <dc:format>image/svg+xml</dc:format>
        <dc:type
           rdf:resource="http://purl.org/dc/dcmitype/StillImage" />
        <dc:title></dc:title>
      </cc:Work>
    </rdf:RDF>
  </metadata>
  <g
     inkscape:label="Layer 1"
     inkscape:groupmode="layer"
     id="layer1"
     transform="translate(-97.729686,-250.87505)" />
  <g
     inkscape:groupmode="layer"
     id="layer2"
     inkscape:label="vectors"
     transform="translate(-97.729686,-250.87505)">
    <path
       d="m 267.53726,384.19194 c -5.40678,0 -9.76969,4.51051 -9.76969,10.10022 0,5.58971 4.36291,10.10023 9.76969,10.10023 l 7.11585,0 -29.04663,358.48267 108.13744,0 108.10829,0 -29.04663,-358.48267 7.11584,0 c 5.40679,0 9.7697,-4.51052 9.7697,-10.10023 0,-5.58971 -4.36291,-10.10022 -9.7697,-10.10022 l -172.38416,0 z"
       id="lighthouse_base"
       inkscape:connector-curvature="0"
       style="fill:#a05a2c">
      <title
         id="title3013">lighthouse_base</title>
    </path>
    <path
       sodipodi:type="star"
       id="path3015"
       sodipodi:sides="3"
       sodipodi:cx="232.14017"
       sodipodi:cy="276.45401"
       sodipodi:r1="94.843254"
       sodipodi:r2="47.421627"
       sodipodi:arg1="-1.5707963"
       sodipodi:arg2="-0.52359878"
       inkscape:flatsided="false"
       inkscape:rounded="0"
       inkscape:randomized="0"
       d="m 232.14017,181.61076 41.06833,71.13244 41.06833,71.13244 -82.13666,0 -82.13667,-10e-6 41.06833,-71.13243 z"
       inkscape:transform-center-y="-10.914499"
       transform="matrix(0.93322499,0,0,0.44411325,137.09068,170.21931)"
       style="fill:#a05a2c" />
    <path
       d="m 97.729686,306.33529 0,42.632 0,42.63201 192.623474,-21.316 21.34752,-2.3517 0,-37.92861 -21.34752,-2.3517 -192.623474,-21.316 z"
       id="path3025"
       inkscape:connector-curvature="0"
       style="fill:#ffcc00" />
    <path
       id="path3031"
       d="m 609.72968,306.33528 0,42.632 0,42.63201 -192.62347,-21.316 -21.34752,-2.3517 0,-37.92861 21.34752,-2.3517 192.62347,-21.316 z"
       inkscape:connector-curvature="0"
       style="fill:#ffcc00" />
  </g>
</svg>
